<?xml version="1.0" encoding="UTF-8" standalone="no"?>
<!DOCTYPE svg PUBLIC "-//W3C//DTD SVG 1.1//EN"
 "http://www.w3.org/Graphics/SVG/1.1/DTD/svg11.dtd">
<!-- Generated by graphviz version 2.47.3 (20210619.1520)
 -->
<!-- Title: dependencies Pages: 1 -->
<svg width="2017pt" height="247pt"
 viewBox="0.00 0.00 2017.00 246.80" xmlns="http://www.w3.org/2000/svg" xmlns:xlink="http://www.w3.org/1999/xlink">
<g id="graph0" class="graph" transform="scale(1 1) rotate(0) translate(4 242.8)">
<title>dependencies</title>
<polygon fill="white" stroke="transparent" points="-4,4 -4,-242.8 2013,-242.8 2013,4 -4,4"/>
<text text-anchor="middle" x="1004.5" y="-8.2" font-family="sans-serif" font-size="14.00">dependencies</text>
<g id="clust1" class="cluster">
<title>cluster_AppModule</title>
<polygon fill="none" stroke="black" stroke-dasharray="1,5" points="8,-32.8 8,-230.8 2001,-230.8 2001,-32.8 8,-32.8"/>
</g>
<g id="clust18" class="cluster">
<title>cluster_AppModule_providers</title>
<polygon fill="none" stroke="black" points="1831,-40.8 1831,-92.8 1993,-92.8 1993,-40.8 1831,-40.8"/>
</g>
<g id="clust15" class="cluster">
<title>cluster_AppModule_imports</title>
<polygon fill="none" stroke="black" points="1679,-40.8 1679,-92.8 1823,-92.8 1823,-40.8 1679,-40.8"/>
</g>
<g id="clust17" class="cluster">
<title>cluster_AppModule_bootstrap</title>
<polygon fill="none" stroke="black" points="933,-170.8 933,-222.8 1057,-222.8 1057,-170.8 933,-170.8"/>
</g>
<g id="clust2" class="cluster">
<title>cluster_AppModule_declarations</title>
<polygon fill="none" stroke="black" points="16,-40.8 16,-92.8 1671,-92.8 1671,-40.8 16,-40.8"/>
</g>
<!-- AgregarComponent -->
<g id="node1" class="node">
<title>AgregarComponent</title>
<polygon fill="#ffffb3" stroke="black" points="1662.69,-84.8 1535.31,-84.8 1535.31,-48.8 1662.69,-48.8 1662.69,-84.8"/>
<text text-anchor="middle" x="1599" y="-62.6" font-family="Times,serif" font-size="14.00">AgregarComponent</text>
</g>
<!-- AppModule -->
<g id="node13" class="node">
<title>AppModule</title>
<polygon fill="#8dd3c7" stroke="black" points="1036.66,-149.8 1033.66,-153.8 1012.66,-153.8 1009.66,-149.8 953.34,-149.8 953.34,-113.8 1036.66,-113.8 1036.66,-149.8"/>
<text text-anchor="middle" x="995" y="-127.6" font-family="Times,serif" font-size="14.00">AppModule</text>
</g>
<!-- AgregarComponent&#45;&gt;AppModule -->
<g id="edge1" class="edge">
<title>AgregarComponent&#45;&gt;AppModule</title>
<path fill="none" stroke="black" d="M1599,-85.02C1599,-105.17 1599,-134.8 1599,-134.8 1599,-134.8 1046.99,-134.8 1046.99,-134.8"/>
<polygon fill="black" stroke="black" points="1046.99,-131.3 1036.99,-134.8 1046.99,-138.3 1046.99,-131.3"/>
</g>
<!-- AppComponent -->
<g id="node2" class="node">
<title>AppComponent</title>
<polygon fill="#ffffb3" stroke="black" points="1517.94,-84.8 1412.06,-84.8 1412.06,-48.8 1517.94,-48.8 1517.94,-84.8"/>
<text text-anchor="middle" x="1465" y="-62.6" font-family="Times,serif" font-size="14.00">AppComponent</text>
</g>
<!-- AppComponent&#45;&gt;AppModule -->
<g id="edge2" class="edge">
<title>AppComponent&#45;&gt;AppModule</title>
<path fill="none" stroke="black" d="M1465,-85.02C1465,-103.63 1465,-129.8 1465,-129.8 1465,-129.8 1046.71,-129.8 1046.71,-129.8"/>
<polygon fill="black" stroke="black" points="1046.71,-126.3 1036.71,-129.8 1046.71,-133.3 1046.71,-126.3"/>
</g>
<!-- CrudComponent -->
<g id="node3" class="node">
<title>CrudComponent</title>
<polygon fill="#ffffb3" stroke="black" points="1394.83,-84.8 1285.17,-84.8 1285.17,-48.8 1394.83,-48.8 1394.83,-84.8"/>
<text text-anchor="middle" x="1340" y="-62.6" font-family="Times,serif" font-size="14.00">CrudComponent</text>
</g>
<!-- CrudComponent&#45;&gt;AppModule -->
<g id="edge3" class="edge">
<title>CrudComponent&#45;&gt;AppModule</title>
<path fill="none" stroke="black" d="M1340,-84.83C1340,-101.86 1340,-124.8 1340,-124.8 1340,-124.8 1046.96,-124.8 1046.96,-124.8"/>
<polygon fill="black" stroke="black" points="1046.96,-121.3 1036.96,-124.8 1046.96,-128.3 1046.96,-121.3"/>
</g>
<!-- DetallesComponent -->
<g id="node4" class="node">
<title>DetallesComponent</title>
<polygon fill="#ffffb3" stroke="black" points="1267.7,-84.8 1140.3,-84.8 1140.3,-48.8 1267.7,-48.8 1267.7,-84.8"/>
<text text-anchor="middle" x="1204" y="-62.6" font-family="Times,serif" font-size="14.00">DetallesComponent</text>
</g>
<!-- DetallesComponent&#45;&gt;AppModule -->
<g id="edge4" class="edge">
<title>DetallesComponent&#45;&gt;AppModule</title>
<path fill="none" stroke="black" d="M1204,-85.04C1204,-100.37 1204,-119.8 1204,-119.8 1204,-119.8 1046.79,-119.8 1046.79,-119.8"/>
<polygon fill="black" stroke="black" points="1046.79,-116.3 1036.79,-119.8 1046.79,-123.3 1046.79,-116.3"/>
</g>
<!-- FooterComponent -->
<g id="node5" class="node">
<title>FooterComponent</title>
<polygon fill="#ffffb3" stroke="black" points="1121.88,-84.8 1004.12,-84.8 1004.12,-48.8 1121.88,-48.8 1121.88,-84.8"/>
<text text-anchor="middle" x="1063" y="-62.6" font-family="Times,serif" font-size="14.00">FooterComponent</text>
</g>
<!-- FooterComponent&#45;&gt;AppModule -->
<g id="edge5" class="edge">
<title>FooterComponent&#45;&gt;AppModule</title>
<path fill="none" stroke="black" d="M1020.44,-84.91C1020.44,-84.91 1020.44,-103.79 1020.44,-103.79"/>
<polygon fill="black" stroke="black" points="1016.94,-103.79 1020.44,-113.79 1023.94,-103.79 1016.94,-103.79"/>
</g>
<!-- HomeComponent -->
<g id="node6" class="node">
<title>HomeComponent</title>
<polygon fill="#ffffb3" stroke="black" points="985.55,-84.8 870.45,-84.8 870.45,-48.8 985.55,-48.8 985.55,-84.8"/>
<text text-anchor="middle" x="928" y="-62.6" font-family="Times,serif" font-size="14.00">HomeComponent</text>
</g>
<!-- HomeComponent&#45;&gt;AppModule -->
<g id="edge6" class="edge">
<title>HomeComponent&#45;&gt;AppModule</title>
<path fill="none" stroke="black" d="M969.47,-84.91C969.47,-84.91 969.47,-103.79 969.47,-103.79"/>
<polygon fill="black" stroke="black" points="965.97,-103.79 969.47,-113.79 972.97,-103.79 965.97,-103.79"/>
</g>
<!-- ListaComponent -->
<g id="node7" class="node">
<title>ListaComponent</title>
<polygon fill="#ffffb3" stroke="black" points="852.83,-84.8 743.17,-84.8 743.17,-48.8 852.83,-48.8 852.83,-84.8"/>
<text text-anchor="middle" x="798" y="-62.6" font-family="Times,serif" font-size="14.00">ListaComponent</text>
</g>
<!-- ListaComponent&#45;&gt;AppModule -->
<g id="edge7" class="edge">
<title>ListaComponent&#45;&gt;AppModule</title>
<path fill="none" stroke="black" d="M798,-85.04C798,-100.37 798,-119.8 798,-119.8 798,-119.8 943.22,-119.8 943.22,-119.8"/>
<polygon fill="black" stroke="black" points="943.22,-123.3 953.22,-119.8 943.22,-116.3 943.22,-123.3"/>
</g>
<!-- LoginComponent -->
<g id="node8" class="node">
<title>LoginComponent</title>
<polygon fill="#ffffb3" stroke="black" points="725.28,-84.8 610.72,-84.8 610.72,-48.8 725.28,-48.8 725.28,-84.8"/>
<text text-anchor="middle" x="668" y="-62.6" font-family="Times,serif" font-size="14.00">LoginComponent</text>
</g>
<!-- LoginComponent&#45;&gt;AppModule -->
<g id="edge8" class="edge">
<title>LoginComponent&#45;&gt;AppModule</title>
<path fill="none" stroke="black" d="M668,-84.83C668,-101.86 668,-124.8 668,-124.8 668,-124.8 943.25,-124.8 943.25,-124.8"/>
<polygon fill="black" stroke="black" points="943.25,-128.3 953.25,-124.8 943.25,-121.3 943.25,-128.3"/>
</g>
<!-- Navbar2Component -->
<g id="node9" class="node">
<title>Navbar2Component</title>
<polygon fill="#ffffb3" stroke="black" points="592.53,-84.8 463.47,-84.8 463.47,-48.8 592.53,-48.8 592.53,-84.8"/>
<text text-anchor="middle" x="528" y="-62.6" font-family="Times,serif" font-size="14.00">Navbar2Component</text>
</g>
<!-- Navbar2Component&#45;&gt;AppModule -->
<g id="edge9" class="edge">
<title>Navbar2Component&#45;&gt;AppModule</title>
<path fill="none" stroke="black" d="M528,-85.02C528,-103.63 528,-129.8 528,-129.8 528,-129.8 943.15,-129.8 943.15,-129.8"/>
<polygon fill="black" stroke="black" points="943.15,-133.3 953.15,-129.8 943.15,-126.3 943.15,-133.3"/>
</g>
<!-- NavbarComponent -->
<g id="node10" class="node">
<title>NavbarComponent</title>
<polygon fill="#ffffb3" stroke="black" points="445.03,-84.8 322.97,-84.8 322.97,-48.8 445.03,-48.8 445.03,-84.8"/>
<text text-anchor="middle" x="384" y="-62.6" font-family="Times,serif" font-size="14.00">NavbarComponent</text>
</g>
<!-- NavbarComponent&#45;&gt;AppModule -->
<g id="edge10" class="edge">
<title>NavbarComponent&#45;&gt;AppModule</title>
<path fill="none" stroke="black" d="M384,-85.02C384,-105.17 384,-134.8 384,-134.8 384,-134.8 943,-134.8 943,-134.8"/>
<polygon fill="black" stroke="black" points="943,-138.3 953,-134.8 943,-131.3 943,-138.3"/>
</g>
<!-- NotfoundComponent -->
<g id="node11" class="node">
<title>NotfoundComponent</title>
<polygon fill="#ffffb3" stroke="black" points="304.49,-84.8 169.51,-84.8 169.51,-48.8 304.49,-48.8 304.49,-84.8"/>
<text text-anchor="middle" x="237" y="-62.6" font-family="Times,serif" font-size="14.00">NotfoundComponent</text>
</g>
<!-- NotfoundComponent&#45;&gt;AppModule -->
<g id="edge11" class="edge">
<title>NotfoundComponent&#45;&gt;AppModule</title>
<path fill="none" stroke="black" d="M237,-84.84C237,-106.46 237,-139.8 237,-139.8 237,-139.8 943.17,-139.8 943.17,-139.8"/>
<polygon fill="black" stroke="black" points="943.17,-143.3 953.17,-139.8 943.17,-136.3 943.17,-143.3"/>
</g>
<!-- RegisterComponent -->
<g id="node12" class="node">
<title>RegisterComponent</title>
<polygon fill="#ffffb3" stroke="black" points="151.98,-84.8 24.02,-84.8 24.02,-48.8 151.98,-48.8 151.98,-84.8"/>
<text text-anchor="middle" x="88" y="-62.6" font-family="Times,serif" font-size="14.00">RegisterComponent</text>
</g>
<!-- RegisterComponent&#45;&gt;AppModule -->
<g id="edge12" class="edge">
<title>RegisterComponent&#45;&gt;AppModule</title>
<path fill="none" stroke="black" d="M88,-84.89C88,-107.93 88,-144.8 88,-144.8 88,-144.8 943.07,-144.8 943.07,-144.8"/>
<polygon fill="black" stroke="black" points="943.07,-148.3 953.07,-144.8 943.07,-141.3 943.07,-148.3"/>
</g>
<!-- AppComponent  -->
<g id="node15" class="node">
<title>AppComponent </title>
<polygon fill="#80b1d3" stroke="black" points="1049.44,-214.8 940.56,-214.8 940.56,-178.8 1049.44,-178.8 1049.44,-214.8"/>
<text text-anchor="middle" x="995" y="-192.6" font-family="Times,serif" font-size="14.00">AppComponent </text>
</g>
<!-- AppModule&#45;&gt;AppComponent  -->
<g id="edge14" class="edge">
<title>AppModule&#45;&gt;AppComponent </title>
<path fill="none" stroke="black" stroke-dasharray="1,5" d="M995,-149.91C995,-149.91 995,-168.79 995,-168.79"/>
<polygon fill="black" stroke="black" points="991.5,-168.79 995,-178.79 998.5,-168.79 991.5,-168.79"/>
</g>
<!-- AppRoutingModule -->
<g id="node14" class="node">
<title>AppRoutingModule</title>
<polygon fill="#8dd3c7" stroke="black" points="1815.27,-84.8 1812.27,-88.8 1791.27,-88.8 1788.27,-84.8 1686.73,-84.8 1686.73,-48.8 1815.27,-48.8 1815.27,-84.8"/>
<text text-anchor="middle" x="1751" y="-62.6" font-family="Times,serif" font-size="14.00">AppRoutingModule</text>
</g>
<!-- AppRoutingModule&#45;&gt;AppModule -->
<g id="edge13" class="edge">
<title>AppRoutingModule&#45;&gt;AppModule</title>
<path fill="none" stroke="black" d="M1751,-84.84C1751,-106.46 1751,-139.8 1751,-139.8 1751,-139.8 1046.72,-139.8 1046.72,-139.8"/>
<polygon fill="black" stroke="black" points="1046.72,-136.3 1036.72,-139.8 1046.72,-143.3 1046.72,-136.3"/>
</g>
<!-- ApiDataService -->
<g id="node16" class="node">
<title>ApiDataService</title>
<ellipse fill="#fdb462" stroke="black" cx="1912" cy="-66.8" rx="72.91" ry="18"/>
<text text-anchor="middle" x="1912" y="-62.6" font-family="Times,serif" font-size="14.00">ApiDataService</text>
</g>
<!-- ApiDataService&#45;&gt;AppModule -->
<g id="edge15" class="edge">
<title>ApiDataService&#45;&gt;AppModule</title>
<path fill="none" stroke="black" d="M1912,-84.89C1912,-107.93 1912,-144.8 1912,-144.8 1912,-144.8 1046.78,-144.8 1046.78,-144.8"/>
<polygon fill="black" stroke="black" points="1046.78,-141.3 1036.78,-144.8 1046.78,-148.3 1046.78,-141.3"/>
</g>
</g>
</svg>
