<?xml version="1.0" encoding="UTF-8" standalone="no"?>
<!DOCTYPE svg PUBLIC "-//W3C//DTD SVG 1.1//EN"
 "http://www.w3.org/Graphics/SVG/1.1/DTD/svg11.dtd">
<!-- Generated by graphviz version 2.47.3 (20210619.1520)
 -->
<!-- Title: dependencies Pages: 1 -->
<svg width="2017pt" height="247pt"
 viewBox="0.00 0.00 2017.00 246.80" xmlns="http://www.w3.org/2000/svg" xmlns:xlink="http://www.w3.org/1999/xlink">
<g id="graph0" class="graph" transform="scale(1 1) rotate(0) translate(4 242.8)">
<title>dependencies</title>
<polygon fill="white" stroke="transparent" points="-4,4 -4,-242.8 2013,-242.8 2013,4 -4,4"/>
<text text-anchor="middle" x="1004.5" y="-8.2" font-family="sans-serif" font-size="14.00">dependencies</text>
<g id="clust1" class="cluster">
<title>cluster_AppModule</title>
<polygon fill="none" stroke="black" stroke-dasharray="1,5" points="8,-32.8 8,-230.8 2001,-230.8 2001,-32.8 8,-32.8"/>
</g>
<g id="clust2" class="cluster">
<title>cluster_AppModule_declarations</title>
<polygon fill="none" stroke="black" points="338,-40.8 338,-92.8 1993,-92.8 1993,-40.8 338,-40.8"/>
</g>
<g id="clust15" class="cluster">
<title>cluster_AppModule_imports</title>
<polygon fill="none" stroke="black" points="186,-40.8 186,-92.8 330,-92.8 330,-40.8 186,-40.8"/>
</g>
<g id="clust17" class="cluster">
<title>cluster_AppModule_bootstrap</title>
<polygon fill="none" stroke="black" points="993,-170.8 993,-222.8 1117,-222.8 1117,-170.8 993,-170.8"/>
</g>
<g id="clust18" class="cluster">
<title>cluster_AppModule_providers</title>
<polygon fill="none" stroke="black" points="16,-40.8 16,-92.8 178,-92.8 178,-40.8 16,-40.8"/>
</g>
<!-- AgregarComponent -->
<g id="node1" class="node">
<title>AgregarComponent</title>
<polygon fill="#ffffb3" stroke="black" points="1984.69,-84.8 1857.31,-84.8 1857.31,-48.8 1984.69,-48.8 1984.69,-84.8"/>
<text text-anchor="middle" x="1921" y="-62.6" font-family="Times,serif" font-size="14.00">AgregarComponent</text>
</g>
<!-- AppModule -->
<g id="node13" class="node">
<title>AppModule</title>
<polygon fill="#8dd3c7" stroke="black" points="1096.66,-149.8 1093.66,-153.8 1072.66,-153.8 1069.66,-149.8 1013.34,-149.8 1013.34,-113.8 1096.66,-113.8 1096.66,-149.8"/>
<text text-anchor="middle" x="1055" y="-127.6" font-family="Times,serif" font-size="14.00">AppModule</text>
</g>
<!-- AgregarComponent&#45;&gt;AppModule -->
<g id="edge1" class="edge">
<title>AgregarComponent&#45;&gt;AppModule</title>
<path fill="none" stroke="black" d="M1921,-84.89C1921,-107.93 1921,-144.8 1921,-144.8 1921,-144.8 1106.77,-144.8 1106.77,-144.8"/>
<polygon fill="black" stroke="black" points="1106.77,-141.3 1096.77,-144.8 1106.77,-148.3 1106.77,-141.3"/>
</g>
<!-- AppComponent -->
<g id="node2" class="node">
<title>AppComponent</title>
<polygon fill="#ffffb3" stroke="black" points="1839.94,-84.8 1734.06,-84.8 1734.06,-48.8 1839.94,-48.8 1839.94,-84.8"/>
<text text-anchor="middle" x="1787" y="-62.6" font-family="Times,serif" font-size="14.00">AppComponent</text>
</g>
<!-- AppComponent&#45;&gt;AppModule -->
<g id="edge2" class="edge">
<title>AppComponent&#45;&gt;AppModule</title>
<path fill="none" stroke="black" d="M1787,-84.84C1787,-106.46 1787,-139.8 1787,-139.8 1787,-139.8 1106.72,-139.8 1106.72,-139.8"/>
<polygon fill="black" stroke="black" points="1106.72,-136.3 1096.72,-139.8 1106.72,-143.3 1106.72,-136.3"/>
</g>
<!-- CrudComponent -->
<g id="node3" class="node">
<title>CrudComponent</title>
<polygon fill="#ffffb3" stroke="black" points="1716.83,-84.8 1607.17,-84.8 1607.17,-48.8 1716.83,-48.8 1716.83,-84.8"/>
<text text-anchor="middle" x="1662" y="-62.6" font-family="Times,serif" font-size="14.00">CrudComponent</text>
</g>
<!-- CrudComponent&#45;&gt;AppModule -->
<g id="edge3" class="edge">
<title>CrudComponent&#45;&gt;AppModule</title>
<path fill="none" stroke="black" d="M1662,-85.02C1662,-105.17 1662,-134.8 1662,-134.8 1662,-134.8 1106.72,-134.8 1106.72,-134.8"/>
<polygon fill="black" stroke="black" points="1106.72,-131.3 1096.72,-134.8 1106.72,-138.3 1106.72,-131.3"/>
</g>
<!-- DetallesComponent -->
<g id="node4" class="node">
<title>DetallesComponent</title>
<polygon fill="#ffffb3" stroke="black" points="1589.7,-84.8 1462.3,-84.8 1462.3,-48.8 1589.7,-48.8 1589.7,-84.8"/>
<text text-anchor="middle" x="1526" y="-62.6" font-family="Times,serif" font-size="14.00">DetallesComponent</text>
</g>
<!-- DetallesComponent&#45;&gt;AppModule -->
<g id="edge4" class="edge">
<title>DetallesComponent&#45;&gt;AppModule</title>
<path fill="none" stroke="black" d="M1526,-85.02C1526,-103.63 1526,-129.8 1526,-129.8 1526,-129.8 1106.8,-129.8 1106.8,-129.8"/>
<polygon fill="black" stroke="black" points="1106.8,-126.3 1096.8,-129.8 1106.8,-133.3 1106.8,-126.3"/>
</g>
<!-- FooterComponent -->
<g id="node5" class="node">
<title>FooterComponent</title>
<polygon fill="#ffffb3" stroke="black" points="1443.88,-84.8 1326.12,-84.8 1326.12,-48.8 1443.88,-48.8 1443.88,-84.8"/>
<text text-anchor="middle" x="1385" y="-62.6" font-family="Times,serif" font-size="14.00">FooterComponent</text>
</g>
<!-- FooterComponent&#45;&gt;AppModule -->
<g id="edge5" class="edge">
<title>FooterComponent&#45;&gt;AppModule</title>
<path fill="none" stroke="black" d="M1385,-84.83C1385,-101.86 1385,-124.8 1385,-124.8 1385,-124.8 1106.79,-124.8 1106.79,-124.8"/>
<polygon fill="black" stroke="black" points="1106.79,-121.3 1096.79,-124.8 1106.79,-128.3 1106.79,-121.3"/>
</g>
<!-- HomeComponent -->
<g id="node6" class="node">
<title>HomeComponent</title>
<polygon fill="#ffffb3" stroke="black" points="1307.55,-84.8 1192.45,-84.8 1192.45,-48.8 1307.55,-48.8 1307.55,-84.8"/>
<text text-anchor="middle" x="1250" y="-62.6" font-family="Times,serif" font-size="14.00">HomeComponent</text>
</g>
<!-- HomeComponent&#45;&gt;AppModule -->
<g id="edge6" class="edge">
<title>HomeComponent&#45;&gt;AppModule</title>
<path fill="none" stroke="black" d="M1250,-85.04C1250,-100.37 1250,-119.8 1250,-119.8 1250,-119.8 1106.83,-119.8 1106.83,-119.8"/>
<polygon fill="black" stroke="black" points="1106.83,-116.3 1096.83,-119.8 1106.83,-123.3 1106.83,-116.3"/>
</g>
<!-- ListaComponent -->
<g id="node7" class="node">
<title>ListaComponent</title>
<polygon fill="#ffffb3" stroke="black" points="1174.83,-84.8 1065.17,-84.8 1065.17,-48.8 1174.83,-48.8 1174.83,-84.8"/>
<text text-anchor="middle" x="1120" y="-62.6" font-family="Times,serif" font-size="14.00">ListaComponent</text>
</g>
<!-- ListaComponent&#45;&gt;AppModule -->
<g id="edge7" class="edge">
<title>ListaComponent&#45;&gt;AppModule</title>
<path fill="none" stroke="black" d="M1081.08,-84.91C1081.08,-84.91 1081.08,-103.79 1081.08,-103.79"/>
<polygon fill="black" stroke="black" points="1077.58,-103.79 1081.08,-113.79 1084.58,-103.79 1077.58,-103.79"/>
</g>
<!-- LoginComponent -->
<g id="node8" class="node">
<title>LoginComponent</title>
<polygon fill="#ffffb3" stroke="black" points="1047.28,-84.8 932.72,-84.8 932.72,-48.8 1047.28,-48.8 1047.28,-84.8"/>
<text text-anchor="middle" x="990" y="-62.6" font-family="Times,serif" font-size="14.00">LoginComponent</text>
</g>
<!-- LoginComponent&#45;&gt;AppModule -->
<g id="edge8" class="edge">
<title>LoginComponent&#45;&gt;AppModule</title>
<path fill="none" stroke="black" d="M1030.28,-84.91C1030.28,-84.91 1030.28,-103.79 1030.28,-103.79"/>
<polygon fill="black" stroke="black" points="1026.78,-103.79 1030.28,-113.79 1033.78,-103.79 1026.78,-103.79"/>
</g>
<!-- Navbar2Component -->
<g id="node9" class="node">
<title>Navbar2Component</title>
<polygon fill="#ffffb3" stroke="black" points="914.53,-84.8 785.47,-84.8 785.47,-48.8 914.53,-48.8 914.53,-84.8"/>
<text text-anchor="middle" x="850" y="-62.6" font-family="Times,serif" font-size="14.00">Navbar2Component</text>
</g>
<!-- Navbar2Component&#45;&gt;AppModule -->
<g id="edge9" class="edge">
<title>Navbar2Component&#45;&gt;AppModule</title>
<path fill="none" stroke="black" d="M850,-85.04C850,-100.37 850,-119.8 850,-119.8 850,-119.8 1003.02,-119.8 1003.02,-119.8"/>
<polygon fill="black" stroke="black" points="1003.02,-123.3 1013.02,-119.8 1003.02,-116.3 1003.02,-123.3"/>
</g>
<!-- NavbarComponent -->
<g id="node10" class="node">
<title>NavbarComponent</title>
<polygon fill="#ffffb3" stroke="black" points="767.03,-84.8 644.97,-84.8 644.97,-48.8 767.03,-48.8 767.03,-84.8"/>
<text text-anchor="middle" x="706" y="-62.6" font-family="Times,serif" font-size="14.00">NavbarComponent</text>
</g>
<!-- NavbarComponent&#45;&gt;AppModule -->
<g id="edge10" class="edge">
<title>NavbarComponent&#45;&gt;AppModule</title>
<path fill="none" stroke="black" d="M706,-84.83C706,-101.86 706,-124.8 706,-124.8 706,-124.8 1003.25,-124.8 1003.25,-124.8"/>
<polygon fill="black" stroke="black" points="1003.25,-128.3 1013.25,-124.8 1003.25,-121.3 1003.25,-128.3"/>
</g>
<!-- NotfoundComponent -->
<g id="node11" class="node">
<title>NotfoundComponent</title>
<polygon fill="#ffffb3" stroke="black" points="626.49,-84.8 491.51,-84.8 491.51,-48.8 626.49,-48.8 626.49,-84.8"/>
<text text-anchor="middle" x="559" y="-62.6" font-family="Times,serif" font-size="14.00">NotfoundComponent</text>
</g>
<!-- NotfoundComponent&#45;&gt;AppModule -->
<g id="edge11" class="edge">
<title>NotfoundComponent&#45;&gt;AppModule</title>
<path fill="none" stroke="black" d="M559,-85.02C559,-103.63 559,-129.8 559,-129.8 559,-129.8 1003.14,-129.8 1003.14,-129.8"/>
<polygon fill="black" stroke="black" points="1003.14,-133.3 1013.14,-129.8 1003.14,-126.3 1003.14,-133.3"/>
</g>
<!-- RegisterComponent -->
<g id="node12" class="node">
<title>RegisterComponent</title>
<polygon fill="#ffffb3" stroke="black" points="473.98,-84.8 346.02,-84.8 346.02,-48.8 473.98,-48.8 473.98,-84.8"/>
<text text-anchor="middle" x="410" y="-62.6" font-family="Times,serif" font-size="14.00">RegisterComponent</text>
</g>
<!-- RegisterComponent&#45;&gt;AppModule -->
<g id="edge12" class="edge">
<title>RegisterComponent&#45;&gt;AppModule</title>
<path fill="none" stroke="black" d="M410,-85.02C410,-105.17 410,-134.8 410,-134.8 410,-134.8 1003.18,-134.8 1003.18,-134.8"/>
<polygon fill="black" stroke="black" points="1003.18,-138.3 1013.18,-134.8 1003.18,-131.3 1003.18,-138.3"/>
</g>
<!-- AppComponent  -->
<g id="node15" class="node">
<title>AppComponent </title>
<polygon fill="#80b1d3" stroke="black" points="1109.44,-214.8 1000.56,-214.8 1000.56,-178.8 1109.44,-178.8 1109.44,-214.8"/>
<text text-anchor="middle" x="1055" y="-192.6" font-family="Times,serif" font-size="14.00">AppComponent </text>
</g>
<!-- AppModule&#45;&gt;AppComponent  -->
<g id="edge14" class="edge">
<title>AppModule&#45;&gt;AppComponent </title>
<path fill="none" stroke="black" stroke-dasharray="1,5" d="M1055,-149.91C1055,-149.91 1055,-168.79 1055,-168.79"/>
<polygon fill="black" stroke="black" points="1051.5,-168.79 1055,-178.79 1058.5,-168.79 1051.5,-168.79"/>
</g>
<!-- AppRoutingModule -->
<g id="node14" class="node">
<title>AppRoutingModule</title>
<polygon fill="#8dd3c7" stroke="black" points="322.27,-84.8 319.27,-88.8 298.27,-88.8 295.27,-84.8 193.73,-84.8 193.73,-48.8 322.27,-48.8 322.27,-84.8"/>
<text text-anchor="middle" x="258" y="-62.6" font-family="Times,serif" font-size="14.00">AppRoutingModule</text>
</g>
<!-- AppRoutingModule&#45;&gt;AppModule -->
<g id="edge13" class="edge">
<title>AppRoutingModule&#45;&gt;AppModule</title>
<path fill="none" stroke="black" d="M258,-84.84C258,-106.46 258,-139.8 258,-139.8 258,-139.8 1003.27,-139.8 1003.27,-139.8"/>
<polygon fill="black" stroke="black" points="1003.27,-143.3 1013.27,-139.8 1003.27,-136.3 1003.27,-143.3"/>
</g>
<!-- ApiDataService -->
<g id="node16" class="node">
<title>ApiDataService</title>
<ellipse fill="#fdb462" stroke="black" cx="97" cy="-66.8" rx="72.91" ry="18"/>
<text text-anchor="middle" x="97" y="-62.6" font-family="Times,serif" font-size="14.00">ApiDataService</text>
</g>
<!-- ApiDataService&#45;&gt;AppModule -->
<g id="edge15" class="edge">
<title>ApiDataService&#45;&gt;AppModule</title>
<path fill="none" stroke="black" d="M97,-84.89C97,-107.93 97,-144.8 97,-144.8 97,-144.8 1003.22,-144.8 1003.22,-144.8"/>
<polygon fill="black" stroke="black" points="1003.22,-148.3 1013.22,-144.8 1003.22,-141.3 1003.22,-148.3"/>
</g>
</g>
</svg>
